<mxfile host="app.diagrams.net" modified="2022-11-19T07:13:45.648Z" agent="5.0 (X11)" etag="CD2nk4HVRedt2drJtuqZ" version="20.5.3" type="github">
  <diagram id="ub3vnYTZT_gb7076K1Aa" name="Page-1">
    <mxGraphModel dx="1185" dy="605" grid="1" gridSize="10" guides="1" tooltips="1" connect="1" arrows="1" fold="1" page="1" pageScale="1" pageWidth="850" pageHeight="1100" math="0" shadow="0">
      <root>
        <mxCell id="0" />
        <mxCell id="1" parent="0" />
        <mxCell id="GaA5yQTh2X4wVMZrG-Xp-41" style="edgeStyle=orthogonalEdgeStyle;rounded=0;orthogonalLoop=1;jettySize=auto;html=1;strokeWidth=3;fontSize=18;fontColor=#0000FF;strokeColor=#006600;" edge="1" parent="1" source="GaA5yQTh2X4wVMZrG-Xp-1" target="GaA5yQTh2X4wVMZrG-Xp-18">
          <mxGeometry relative="1" as="geometry">
            <Array as="points">
              <mxPoint x="200" y="270" />
              <mxPoint x="200" y="270" />
            </Array>
          </mxGeometry>
        </mxCell>
        <mxCell id="GaA5yQTh2X4wVMZrG-Xp-1" value="" style="sketch=0;outlineConnect=0;fillColor=#006633;strokeColor=#36393d;dashed=0;verticalLabelPosition=bottom;verticalAlign=top;align=center;html=1;fontSize=12;fontStyle=0;aspect=fixed;pointerEvents=1;shape=mxgraph.aws4.iot_thing_plc;" vertex="1" parent="1">
          <mxGeometry x="59" y="208" width="100" height="100" as="geometry" />
        </mxCell>
        <mxCell id="GaA5yQTh2X4wVMZrG-Xp-2" value="&lt;div style=&quot;font-size: 20px;&quot;&gt;PLC Modbus&lt;/div&gt;" style="text;html=1;align=center;verticalAlign=middle;whiteSpace=wrap;rounded=0;strokeWidth=5;perimeterSpacing=3;fontSize=20;fontStyle=1;fontColor=#808080;" vertex="1" parent="1">
          <mxGeometry x="50" y="155" width="126.5" height="40" as="geometry" />
        </mxCell>
        <mxCell id="GaA5yQTh2X4wVMZrG-Xp-5" value="I/O" style="text;html=1;align=center;verticalAlign=middle;whiteSpace=wrap;rounded=0;strokeWidth=5;perimeterSpacing=3;fontSize=16;fontStyle=1" vertex="1" parent="1">
          <mxGeometry x="30" y="234" width="20" height="39" as="geometry" />
        </mxCell>
        <mxCell id="GaA5yQTh2X4wVMZrG-Xp-21" style="edgeStyle=orthogonalEdgeStyle;rounded=0;orthogonalLoop=1;jettySize=auto;html=1;strokeWidth=3;fontSize=20;strokeColor=#FF0000;" edge="1" parent="1" source="GaA5yQTh2X4wVMZrG-Xp-7" target="GaA5yQTh2X4wVMZrG-Xp-19">
          <mxGeometry relative="1" as="geometry">
            <Array as="points">
              <mxPoint x="650" y="250" />
              <mxPoint x="650" y="250" />
            </Array>
          </mxGeometry>
        </mxCell>
        <mxCell id="GaA5yQTh2X4wVMZrG-Xp-7" value="" style="verticalLabelPosition=bottom;html=1;verticalAlign=top;align=center;strokeColor=none;fillColor=#00BEF2;shape=mxgraph.azure.computer;pointerEvents=1;strokeWidth=5;fontSize=15;" vertex="1" parent="1">
          <mxGeometry x="710" y="210" width="100" height="95.25" as="geometry" />
        </mxCell>
        <mxCell id="GaA5yQTh2X4wVMZrG-Xp-10" value="&lt;div style=&quot;font-size: 20px;&quot;&gt;HMI&lt;/div&gt;" style="text;html=1;align=center;verticalAlign=middle;whiteSpace=wrap;rounded=0;strokeWidth=2;perimeterSpacing=6;fontSize=20;opacity=20;fontStyle=1;fontColor=#808080;" vertex="1" parent="1">
          <mxGeometry x="740" y="230" width="40" height="41.5" as="geometry" />
        </mxCell>
        <mxCell id="GaA5yQTh2X4wVMZrG-Xp-11" value="" style="rounded=0;whiteSpace=wrap;html=1;strokeWidth=4;fontSize=19;opacity=20;dashed=1;strokeColor=#666666;" vertex="1" parent="1">
          <mxGeometry x="210" y="137.63" width="440" height="240" as="geometry" />
        </mxCell>
        <mxCell id="GaA5yQTh2X4wVMZrG-Xp-35" style="edgeStyle=orthogonalEdgeStyle;rounded=0;orthogonalLoop=1;jettySize=auto;html=1;strokeWidth=3;fontSize=18;fontColor=#0000FF;strokeColor=#FF3333;" edge="1" parent="1" source="GaA5yQTh2X4wVMZrG-Xp-18" target="GaA5yQTh2X4wVMZrG-Xp-1">
          <mxGeometry relative="1" as="geometry">
            <Array as="points">
              <mxPoint x="220" y="250" />
              <mxPoint x="220" y="250" />
            </Array>
          </mxGeometry>
        </mxCell>
        <mxCell id="GaA5yQTh2X4wVMZrG-Xp-18" value="" style="fontColor=#0066CC;verticalAlign=top;verticalLabelPosition=bottom;labelPosition=center;align=center;html=1;outlineConnect=0;fillColor=#CCCCCC;strokeColor=#6881B3;gradientColor=none;gradientDirection=north;strokeWidth=2;shape=mxgraph.networks.desktop_pc;fontSize=15;" vertex="1" parent="1">
          <mxGeometry x="270" y="195" width="70" height="150" as="geometry" />
        </mxCell>
        <mxCell id="GaA5yQTh2X4wVMZrG-Xp-44" style="edgeStyle=orthogonalEdgeStyle;rounded=0;orthogonalLoop=1;jettySize=auto;html=1;entryX=-0.008;entryY=0.621;entryDx=0;entryDy=0;entryPerimeter=0;strokeWidth=3;fontSize=18;fontColor=#0000FF;strokeColor=#006600;" edge="1" parent="1" source="GaA5yQTh2X4wVMZrG-Xp-19" target="GaA5yQTh2X4wVMZrG-Xp-7">
          <mxGeometry relative="1" as="geometry">
            <Array as="points">
              <mxPoint x="650" y="270" />
            </Array>
          </mxGeometry>
        </mxCell>
        <mxCell id="GaA5yQTh2X4wVMZrG-Xp-19" value="" style="fontColor=#0066CC;verticalAlign=top;verticalLabelPosition=bottom;labelPosition=center;align=center;html=1;outlineConnect=0;fillColor=#CCCCCC;strokeColor=#6881B3;gradientColor=none;gradientDirection=north;strokeWidth=2;shape=mxgraph.networks.desktop_pc;fontSize=15;" vertex="1" parent="1">
          <mxGeometry x="510" y="195" width="70" height="150" as="geometry" />
        </mxCell>
        <mxCell id="GaA5yQTh2X4wVMZrG-Xp-20" value="" style="pointerEvents=1;fillColor=strokeColor;verticalLabelPosition=bottom;shadow=0;dashed=0;align=center;html=1;verticalAlign=top;shape=mxgraph.electrical.diodes.diode;strokeColor=#666666;strokeWidth=4;fontSize=19;opacity=20;" vertex="1" parent="1">
          <mxGeometry x="340" y="230" width="170" height="69.5" as="geometry" />
        </mxCell>
        <mxCell id="GaA5yQTh2X4wVMZrG-Xp-26" value="Res&lt;sub&gt;(i)&lt;br&gt;&lt;/sub&gt;" style="text;html=1;align=center;verticalAlign=top;whiteSpace=wrap;rounded=1;strokeWidth=0;perimeterSpacing=1;fontSize=15;fillColor=none;strokeColor=#36393d;fillStyle=auto;sketch=0;shadow=0;glass=0;fontStyle=1" vertex="1" parent="1">
          <mxGeometry x="620" y="266" width="60" height="29.5" as="geometry" />
        </mxCell>
        <mxCell id="GaA5yQTh2X4wVMZrG-Xp-27" style="edgeStyle=orthogonalEdgeStyle;rounded=0;orthogonalLoop=1;jettySize=auto;html=1;exitX=0.5;exitY=1;exitDx=0;exitDy=0;strokeWidth=2;fontSize=20;" edge="1" parent="1" source="GaA5yQTh2X4wVMZrG-Xp-26" target="GaA5yQTh2X4wVMZrG-Xp-26">
          <mxGeometry relative="1" as="geometry" />
        </mxCell>
        <mxCell id="GaA5yQTh2X4wVMZrG-Xp-28" value="Req&lt;sub&gt;(i)&lt;br&gt;&lt;/sub&gt;" style="text;html=1;align=center;verticalAlign=top;whiteSpace=wrap;rounded=1;strokeWidth=0;perimeterSpacing=1;fontSize=15;fillColor=none;strokeColor=#36393d;fillStyle=auto;sketch=0;shadow=0;glass=0;fontStyle=1" vertex="1" parent="1">
          <mxGeometry x="620" y="222.5" width="60" height="29.5" as="geometry" />
        </mxCell>
        <mxCell id="GaA5yQTh2X4wVMZrG-Xp-29" value="&lt;div style=&quot;font-size: 20px;&quot;&gt;PLC-Emulator&lt;/div&gt;" style="text;html=1;align=center;verticalAlign=middle;whiteSpace=wrap;rounded=0;strokeWidth=5;perimeterSpacing=3;fontSize=20;fontStyle=1;fontColor=#0000FF;" vertex="1" parent="1">
          <mxGeometry x="479.75" y="150" width="130.5" height="40" as="geometry" />
        </mxCell>
        <mxCell id="GaA5yQTh2X4wVMZrG-Xp-30" value="&lt;div style=&quot;font-size: 20px;&quot;&gt;HMI-Emulator&lt;/div&gt;" style="text;html=1;align=center;verticalAlign=middle;whiteSpace=wrap;rounded=0;strokeWidth=5;perimeterSpacing=3;fontSize=20;fontStyle=1;fontColor=#990000;" vertex="1" parent="1">
          <mxGeometry x="240" y="150" width="130.5" height="40" as="geometry" />
        </mxCell>
        <mxCell id="GaA5yQTh2X4wVMZrG-Xp-39" value="Req&lt;sub&gt;(j)&lt;br&gt;&lt;/sub&gt;" style="text;html=1;align=center;verticalAlign=top;whiteSpace=wrap;rounded=1;strokeWidth=0;perimeterSpacing=1;fontSize=15;fillColor=none;strokeColor=#36393d;fillStyle=auto;sketch=0;shadow=0;glass=0;fontStyle=1" vertex="1" parent="1">
          <mxGeometry x="180" y="217" width="60" height="29.5" as="geometry" />
        </mxCell>
        <mxCell id="GaA5yQTh2X4wVMZrG-Xp-40" value="Res&lt;sub&gt;(j)&lt;br&gt;&lt;/sub&gt;" style="text;html=1;align=center;verticalAlign=top;whiteSpace=wrap;rounded=1;strokeWidth=0;perimeterSpacing=1;fontSize=15;fillColor=none;strokeColor=#36393d;fillStyle=auto;sketch=0;shadow=0;glass=0;fontStyle=1" vertex="1" parent="1">
          <mxGeometry x="180" y="264.75" width="60" height="29.5" as="geometry" />
        </mxCell>
      </root>
    </mxGraphModel>
  </diagram>
</mxfile>
